<svg width="39" height="39" viewBox="0 0 39 39" fill="none" xmlns="http://www.w3.org/2000/svg">
<path d="M18.5948 0.928375C18.9547 0.161619 20.0453 0.16162 20.4052 0.928375L25.4535 11.6826C25.5951 11.9842 25.8775 12.1954 26.2068 12.2461L37.5777 13.9937C38.382 14.1173 38.7098 15.0985 38.1413 15.6807L29.8527 24.1698C29.6309 24.3969 29.5302 24.716 29.5813 25.0293L31.5284 36.9672C31.6628 37.7911 30.7881 38.4073 30.0576 38.0033L19.9839 32.4327C19.6828 32.2662 19.3172 32.2662 19.0161 32.4327L8.94245 38.0033C8.21189 38.4073 7.33718 37.7911 7.47157 36.9672L9.41872 25.0293C9.46983 24.716 9.36909 24.3969 9.14727 24.1698L0.858694 15.6807C0.290242 15.0985 0.618038 14.1173 1.42229 13.9937L12.7932 12.2461C13.1225 12.1954 13.4049 11.9842 13.5465 11.6826L18.5948 0.928375Z" fill="#F1B434"/>
</svg>
